<svg width="500" height="500" viewBox="0 0 500 500" fill="none" xmlns="http://www.w3.org/2000/svg">
<path d="M83 367L85 351.5L173.5 436.5L172 453.5L83 367Z" fill="#471150"/>
<path d="M173.5 436.5L418 398.5L417 413.5L172 453.5L173.5 436.5Z" fill="#471150"/>
<path d="M162.964 279.777C163.195 279.01 162.469 278.32 161.704 278.557L131.177 288.016C130.23 288.309 129.479 287.194 130.107 286.427L174.502 232.219C174.966 231.652 175.863 231.76 176.178 232.422L200.977 284.403C201.248 284.971 201.97 285.15 202.476 284.775L313.277 202.409C313.855 201.979 314.683 202.282 314.848 202.983L321.938 233.235C321.979 233.408 322.065 233.568 322.188 233.697L372.423 286.302C373.13 287.041 372.401 288.239 371.419 287.952L335.779 277.521C335.016 277.297 334.301 277.986 334.533 278.747C337.614 288.845 353.206 340.071 359.5 363C366.5 388.5 291.321 398.01 244.5 397C200.851 396.059 131.5 385 138 363C143.852 343.194 159.834 290.159 162.964 279.777Z" fill="#471150"/>
<path d="M227.264 41.872C227.398 41.3767 227.885 41.0634 228.391 41.1468L269.38 47.8979C269.759 47.9603 270.069 48.2342 270.177 48.6027L300.657 152.334C300.835 152.938 301.52 153.23 302.078 152.94L456.11 72.8991C457.196 72.3346 458.151 73.8422 457.176 74.5828L310.5 186L208.483 261.77C207.975 262.147 207.249 261.964 206.981 261.391L182 208L157.752 156.176C157.347 155.31 158.272 154.423 159.12 154.865L190.898 171.426C191.464 171.721 192.158 171.417 192.325 170.8L227.264 41.872Z" fill="#F85D0E"/>
</svg>
